# xmcd
#
# Track frame offsets:
#	150
#	12162
#	26015
#	35177
#	44092
#	52105
#	61705
#	71722
#	83130
#	92337
#	106780
#	119175
#	128707
#	143312
#	157827
#	175670
#	188245
#	205397
#	219015
#	230975
#	240325
#	248102
#	254405
#	259417
#	264900
#	270447
#	276362
#	280450
#	286267
#	289647
#	293547
#	297262
#	302547
#
# Disc length: 4210 seconds
#
# Revision: 1
# Processed by: cddbd v1.5.1PL0 Copyright (c) Steve Scherf et al.
# Submitted via: CDex 1.50Beta5
#
DISCID=ea107021
DTITLE=ゲーリー・マイノット - アイ・ラブ・レゲエ〜ノン・ストップ・メガ・ミックスVOL.3
DYEAR=1995
DGENRE=
TTITLE0=ゲーリー・マイノット/デム・キャント・マネージ
TTITLE1=リー・アントニオ/ジャー・チルドレン・リブ
TTITLE2=ダディ・リングス/ワールド・ウィズアウト・ラブ
TTITLE3=COBRA/メイティ・フルー
TTITLE4=シンプルトン/ワーニング
TTITLE5=クロニカル/ウーマン・オブ・ソマリア
TTITLE6=アンソニー・レッド・ローズ/ギィ・ウイ・デ・ウィード
TTITLE7=パワー・マン/ギャル・フロム・ジャマイカ
TTITLE8=レジー・ステッパー/アンダー・ミ・スィン・ティング
TTITLE9=ダディ・スクリュー/ワーク・ワーク
TTITLE10=レディー・ファビラス/レクサス・ボディ
TTITLE11=ウィンストン・ウィーラー/スイーター・ザン・ユー
TTITLE12=ジュニア・ブラマー/サバイバー
TTITLE13=エスティック/ベスト・イズ・イエット・トゥ・カム
TTITLE14=ルーキーD/クレイジー
TTITLE15=アンソニー・レッド・ローズ/バビロン・ビー・スティル
TTITLE16=ルチアーノ/タイム・イズ・ザ・マスター
TTITLE17=フランキー・ポール/ファイヤー・デ・ア・ムス・ムス・テイル
TTITLE18=サームス/ハード・トゥ・コンフェス
TTITLE19=マイキー・スパイス/クローズ・ザ・ドア
TTITLE20=フション/ハブ・ユー・エバー・ビーン
TTITLE21=ポーリティ/ガール・ネクスト・ドア
TTITLE22=グリンゴ/ショップ・ロック
TTITLE23=リトル・カーク/イエスタデイ
TTITLE24=ビーニーマン/キャーン・ボロウ・ソウ
TTITLE25=グラマー・マーフィー/プロシード
TTITLE26=ダーティ・バーティ/ヒーセン・チャイルド
TTITLE27=シンプルトン/レット・レフト・ジャマイカ
TTITLE28=ワン・パイント/セイ・セラシ・アイ
TTITLE29=リトル/アース・イズ・ザ・ロード
TTITLE30=ノリス・マン/ヒーセン
TTITLE31=ハマー・マウス/トリビュート・トゥ・セラシ・アイ
TTITLE32=ニンジャ・フォード/マーク・ア・デ・ビースト
EXTD=
EXTT0=
EXTT1=
EXTT2=
EXTT3=
EXTT4=
EXTT5=
EXTT6=
EXTT7=
EXTT8=
EXTT9=
EXTT10=
EXTT11=
EXTT12=
EXTT13=
EXTT14=
EXTT15=
EXTT16=
EXTT17=
EXTT18=
EXTT19=
EXTT20=
EXTT21=
EXTT22=
EXTT23=
EXTT24=
EXTT25=
EXTT26=
EXTT27=
EXTT28=
EXTT29=
EXTT30=
EXTT31=
EXTT32=
PLAYORDER=
